<svg xmlns="http://www.w3.org/2000/svg" xmlns:xlink="http://www.w3.org/1999/xlink" width="18" height="18" viewBox="0 0 18 18">
  <defs>
    <clipPath id="clip-path">
      <rect id="Rectangle_9" data-name="Rectangle 9" width="18" height="18" transform="translate(0.389)" fill="none"/>
    </clipPath>
    <clipPath id="clip-path-2">
      <path id="Tracé_43" data-name="Tracé 43" d="M111.223-332.011a4.772,4.772,0,0,0-4.763,4.763,4.749,4.749,0,0,0,4.763,4.763,4.772,4.772,0,0,0,4.763-4.763A4.8,4.8,0,0,0,111.223-332.011Zm0,7.814a3.066,3.066,0,0,1-3.053-3.051,3.066,3.066,0,0,1,3.053-3.051,3.066,3.066,0,0,1,3.053,3.051A3.066,3.066,0,0,1,111.223-324.2Z" transform="translate(-106.46 332.011)" fill="none"/>
    </clipPath>
    <linearGradient id="linear-gradient" x1="0.002" y1="0.5" x2="0.998" y2="0.5" gradientUnits="objectBoundingBox">
      <stop offset="0" stop-color="#aa9766"/>
      <stop offset="0.1" stop-color="#ad9a69"/>
      <stop offset="0.2" stop-color="#b19e6d"/>
      <stop offset="0.3" stop-color="#b5a271"/>
      <stop offset="0.4" stop-color="#b9a675"/>
      <stop offset="0.5" stop-color="#bdaa79"/>
      <stop offset="0.6" stop-color="#c1ae7d"/>
      <stop offset="0.7" stop-color="#c5b281"/>
      <stop offset="0.8" stop-color="#c9b685"/>
      <stop offset="0.9" stop-color="#cdba89"/>
      <stop offset="1" stop-color="#d0be8c"/>
    </linearGradient>
    <clipPath id="clip-path-3">
      <path id="Tracé_45" data-name="Tracé 45" d="M311.52-360.153a1.08,1.08,0,0,1,1.08,1.08,1.08,1.08,0,0,1-1.08,1.08,1.08,1.08,0,0,1-1.08-1.08A1.08,1.08,0,0,1,311.52-360.153Z" transform="translate(-310.44 360.153)" fill="none" clip-rule="evenodd"/>
    </clipPath>
    <clipPath id="clip-path-4">
      <path id="Tracé_47" data-name="Tracé 47" d="M17.906-435.135A5.307,5.307,0,0,0,14-436.66H6.331a5.1,5.1,0,0,0-5.4,5.4v7.629A5.355,5.355,0,0,0,2.5-419.652a5.432,5.432,0,0,0,3.87,1.451H13.96a5.494,5.494,0,0,0,3.907-1.451,5.326,5.326,0,0,0,1.526-3.945v-7.666A5.339,5.339,0,0,0,17.906-435.135Zm-.15,11.537a3.632,3.632,0,0,1-1.08,2.716,3.841,3.841,0,0,1-2.716.968H6.368a3.841,3.841,0,0,1-2.716-.968,3.736,3.736,0,0,1-1.006-2.753v-7.629a3.705,3.705,0,0,1,1.006-2.716,3.779,3.779,0,0,1,2.716-.968h7.666a3.714,3.714,0,0,1,2.717,1,3.847,3.847,0,0,1,1,2.68Z" transform="translate(-0.935 436.66)" fill="none"/>
    </clipPath>
  </defs>
  <g id="Instagram_icon" data-name="Instagram icon" transform="translate(-0.389)">
    <g id="Groupe_73" data-name="Groupe 73" transform="translate(0 0)" style="isolation: isolate">
      <g id="Groupe_72" data-name="Groupe 72">
        <g id="Groupe_71" data-name="Groupe 71" clip-path="url(#clip-path)">
          <g id="Groupe_66" data-name="Groupe 66" transform="translate(4.506 4.443)" clip-path="url(#clip-path-2)">
            <g id="Groupe_65" data-name="Groupe 65" transform="translate(-4.506 -4.443)">
              <path id="Tracé_42" data-name="Tracé 42" d="M-.935-218.4H17.6v18.5H-.935Z" transform="translate(0.935 218.405)" fill="url(#linear-gradient)"/>
            </g>
          </g>
          <g id="Groupe_68" data-name="Groupe 68" transform="translate(13.139 3.252)" clip-path="url(#clip-path-3)">
            <g id="Groupe_67" data-name="Groupe 67" transform="translate(-13.139 -3.252)">
              <path id="Tracé_44" data-name="Tracé 44" d="M-.935-218.4H17.6v18.5H-.935Z" transform="translate(0.935 218.405)" fill="url(#linear-gradient)"/>
            </g>
          </g>
          <g id="Groupe_70" data-name="Groupe 70" transform="translate(0.04 0.014)" clip-path="url(#clip-path-4)">
            <g id="Groupe_69" data-name="Groupe 69" transform="translate(-0.04 -0.014)">
              <path id="Tracé_46" data-name="Tracé 46" d="M-.935-218.4H17.6v18.5H-.935Z" transform="translate(0.935 218.405)" fill="url(#linear-gradient)"/>
            </g>
          </g>
        </g>
      </g>
    </g>
  </g>
</svg>
