<svg xmlns="http://www.w3.org/2000/svg" xmlns:xlink="http://www.w3.org/1999/xlink" width="15.629" height="18.033" viewBox="0 0 15.629 18.033">
  <defs>
    <clipPath id="clip-path">
      <path id="Tracé_53" data-name="Tracé 53" d="M13.683-476.167a4.082,4.082,0,0,1-.355-.207,4.99,4.99,0,0,1-.912-.775,4.3,4.3,0,0,1-1.027-2.12h0a2.611,2.611,0,0,1-.041-.755h-3.1v11.976c0,.161,0,.32-.007.477,0,.02,0,.038,0,.059a.13.13,0,0,1,0,.027v.007a2.632,2.632,0,0,1-1.323,2.087,2.584,2.584,0,0,1-1.281.338,2.62,2.62,0,0,1-2.612-2.63,2.62,2.62,0,0,1,2.612-2.63,2.588,2.588,0,0,1,.8.127l0-3.153a5.756,5.756,0,0,0-4.433,1.3,6.077,6.077,0,0,0-1.326,1.635,5.667,5.667,0,0,0-.684,2.6,6.139,6.139,0,0,0,.332,2.056v.008a6.052,6.052,0,0,0,.841,1.534,6.294,6.294,0,0,0,1.342,1.266v-.008l.008.008a5.8,5.8,0,0,0,3.162.952,5.6,5.6,0,0,0,2.346-.519,5.888,5.888,0,0,0,1.905-1.432,5.952,5.952,0,0,0,1.038-1.725,6.463,6.463,0,0,0,.374-1.973v-6.353c.038.022.538.353.538.353a7.163,7.163,0,0,0,1.846.763,10.622,10.622,0,0,0,1.894.259v-3.074A4.015,4.015,0,0,1,13.683-476.167Z" transform="translate(0 480.024)" fill="none"/>
    </clipPath>
    <linearGradient id="linear-gradient" y1="0.5" x2="1" y2="0.5" gradientUnits="objectBoundingBox">
      <stop offset="0" stop-color="#aa9766"/>
      <stop offset="0.1" stop-color="#ad9a69"/>
      <stop offset="0.2" stop-color="#b19e6d"/>
      <stop offset="0.3" stop-color="#b5a271"/>
      <stop offset="0.4" stop-color="#b9a675"/>
      <stop offset="0.5" stop-color="#bdaa79"/>
      <stop offset="0.6" stop-color="#c1ae7d"/>
      <stop offset="0.7" stop-color="#c5b281"/>
      <stop offset="0.8" stop-color="#c9b685"/>
      <stop offset="0.9" stop-color="#cdba89"/>
      <stop offset="1" stop-color="#d0be8c"/>
    </linearGradient>
  </defs>
  <g id="Tiktok_icon" data-name="Tiktok icon" transform="translate(0 480.024)">
    <g id="Groupe_88" data-name="Groupe 88" transform="translate(0 -480.024)" clip-path="url(#clip-path)">
      <g id="Groupe_87" data-name="Groupe 87" transform="translate(0 0)">
        <path id="Tracé_52" data-name="Tracé 52" d="M0-240.012H15.629v18.033H0Z" transform="translate(0 240.012)" fill="url(#linear-gradient)"/>
      </g>
    </g>
  </g>
</svg>
