<svg id="YouTube_icon" data-name="YouTube icon" xmlns="http://www.w3.org/2000/svg" xmlns:xlink="http://www.w3.org/1999/xlink" width="26" height="18" viewBox="0 0 26 18">
  <defs>
    <clipPath id="clip-path">
      <rect id="Rectangle_11" data-name="Rectangle 11" width="26" height="18" transform="translate(0)" fill="none"/>
    </clipPath>
    <clipPath id="clip-path-2">
      <path id="Tracé_51" data-name="Tracé 51" d="M26.579-301.064a3.3,3.3,0,0,0-2.821-2.564,87.57,87.57,0,0,0-9.772-.362,87.581,87.581,0,0,0-9.772.362,3.3,3.3,0,0,0-2.82,2.564,27.952,27.952,0,0,0-.46,6.169,27.942,27.942,0,0,0,.455,6.168,3.3,3.3,0,0,0,2.82,2.565,87.722,87.722,0,0,0,9.772.361,87.706,87.706,0,0,0,9.772-.361,3.3,3.3,0,0,0,2.821-2.565,27.945,27.945,0,0,0,.457-6.168A27.952,27.952,0,0,0,26.579-301.064ZM10.615-290.845v-8.63l8.3,4.328Z" transform="translate(-0.935 303.99)" fill="none"/>
    </clipPath>
    <linearGradient id="linear-gradient" x1="0.002" y1="0.5" x2="0.998" y2="0.5" gradientUnits="objectBoundingBox">
      <stop offset="0" stop-color="#aa9766"/>
      <stop offset="0.1" stop-color="#ad9a69"/>
      <stop offset="0.2" stop-color="#b19e6d"/>
      <stop offset="0.3" stop-color="#b5a271"/>
      <stop offset="0.4" stop-color="#b9a675"/>
      <stop offset="0.5" stop-color="#bdaa79"/>
      <stop offset="0.6" stop-color="#c1ae7d"/>
      <stop offset="0.7" stop-color="#c5b281"/>
      <stop offset="0.8" stop-color="#c9b685"/>
      <stop offset="0.9" stop-color="#cdba89"/>
      <stop offset="1" stop-color="#d0be8c"/>
    </linearGradient>
  </defs>
  <g id="Groupe_85" data-name="Groupe 85" transform="translate(0 0)" style="isolation: isolate">
    <g id="Groupe_84" data-name="Groupe 84" transform="translate(0 0)">
      <g id="Groupe_83" data-name="Groupe 83" clip-path="url(#clip-path)">
        <g id="Groupe_82" data-name="Groupe 82" transform="translate(0.563 0.013)" clip-path="url(#clip-path-2)">
          <g id="Groupe_81" data-name="Groupe 81" transform="translate(-0.056 -0.001)">
            <path id="Tracé_50" data-name="Tracé 50" d="M-.935-152H25.273v18.19H-.935Z" transform="translate(0.935 152)" fill="url(#linear-gradient)"/>
          </g>
        </g>
      </g>
    </g>
  </g>
</svg>
