<?xml version="1.0" standalone="no"?>
<!DOCTYPE svg PUBLIC "-//W3C//DTD SVG 20010904//EN"
 "http://www.w3.org/TR/2001/REC-SVG-20010904/DTD/svg10.dtd">
<svg version="1.0" xmlns="http://www.w3.org/2000/svg"
 width="1080.000000pt" height="1080.000000pt" viewBox="0 0 1080.000000 1080.000000"
 preserveAspectRatio="xMidYMid meet">
<metadata>
Created by potrace 1.14, written by Peter Selinger 2001-2017
</metadata>
<g transform="translate(0.000000,1080.000000) scale(0.100000,-0.100000)"
fill="#000000" stroke="none">
<path d="M1100 10785 c-500 -79 -914 -445 -1051 -930 -51 -179 -49 27 -49
-4455 0 -4482 -2 -4276 49 -4455 61 -216 178 -412 342 -573 183 -179 399 -293
659 -349 81 -17 267 -18 4350 -18 4083 0 4269 1 4350 18 260 56 476 170 659
349 211 207 336 456 376 748 22 158 22 8402 0 8560 -78 572 -520 1018 -1095
1105 -137 21 -8458 20 -8590 0z m2223 -3269 c417 -374 756 -683 755 -687 -2
-4 -330 -308 -729 -676 -399 -367 -768 -707 -820 -755 -59 -55 -90 -91 -83
-95 6 -5 230 -212 497 -461 416 -388 487 -458 486 -480 -1 -17 -3 -21 -6 -9
-2 9 -9 17 -14 17 -6 0 -7 -4 -4 -10 3 -6 -1 -7 -9 -4 -9 3 -13 11 -9 18 4 6
-2 4 -12 -4 -11 -9 -16 -10 -11 -2 5 8 1 12 -12 12 -25 0 -34 -10 -21 -26 7
-8 7 -14 0 -19 -6 -3 -16 5 -22 19 -7 14 -19 24 -30 23 -10 -1 -15 -5 -13 -9
3 -4 -2 -8 -11 -8 -9 0 -14 4 -11 9 4 5 -2 8 -11 7 -10 -2 -22 2 -26 8 -6 7
-7 6 -4 -4 2 -8 10 -14 16 -13 6 2 11 -2 11 -7 0 -17 -18 -11 -40 13 -16 16
-20 18 -14 4 3 -9 1 -23 -5 -31 -6 -7 -9 -16 -6 -20 3 -3 -1 -1 -7 4 -10 9
-10 13 2 20 23 15 6 12 -25 -4 -29 -15 -57 -15 -53 0 1 5 8 8 15 6 7 -2 12 3
11 10 -2 8 5 12 17 10 19 -2 19 -2 1 9 -11 7 -21 8 -25 2 -9 -14 -51 -23 -48
-11 1 6 -4 13 -12 16 -8 3 -11 0 -7 -7 4 -6 0 -11 -9 -11 -9 0 -13 4 -10 10 4
6 -1 7 -11 3 -13 -5 -10 -10 17 -24 33 -18 33 -18 7 -17 -15 1 -24 6 -21 11 2
4 -7 7 -23 5 -16 -2 -28 2 -30 10 -1 7 0 8 3 2 2 -5 9 -10 15 -10 6 0 6 6 -2
15 -10 12 -15 12 -35 -1 -22 -14 -34 -4 -491 418 -258 238 -490 453 -516 478
l-48 45 785 725 c432 399 801 739 821 756 l35 30 -428 383 -428 384 -3 -579
-4 -579 -165 -150 c-90 -82 -175 -158 -189 -168 l-24 -19 0 1177 0 1176 143
-128 c78 -70 483 -434 900 -807z m5195 -835 l-3 -588 -187 171 -186 171 -4
579 -3 578 -428 -382 c-235 -211 -424 -387 -420 -390 13 -12 1596 -1471 1616
-1489 16 -16 -10 -42 -484 -481 -440 -408 -570 -522 -545 -481 4 6 0 11 -8 11
-9 0 -15 -3 -15 -7 3 -19 -2 -27 -9 -15 -5 7 -19 15 -32 17 -13 2 -27 10 -30
16 -5 7 -9 5 -13 -5 -8 -19 4 -27 31 -21 12 2 25 -1 28 -7 5 -7 0 -9 -14 -6
-12 4 -25 2 -28 -3 -4 -6 -11 -6 -19 1 -7 6 -24 9 -38 6 -14 -2 -27 0 -29 4
-2 5 -20 11 -41 14 -20 2 -35 1 -32 -4 3 -5 12 -7 20 -3 10 3 15 -1 15 -12 0
-15 2 -16 18 -4 16 13 16 12 3 -4 -13 -16 -17 -17 -25 -5 -6 8 -16 13 -23 11
-6 -2 -14 1 -18 6 -3 6 -15 11 -26 11 -10 0 -19 5 -19 11 0 5 -5 7 -11 4 -6
-5 -4 -12 8 -22 17 -13 16 -13 -4 -3 -13 6 -23 15 -23 20 0 5 -10 6 -22 4 -13
-3 -28 -6 -35 -6 -9 -1 -9 -7 -1 -22 6 -12 7 -18 3 -14 -5 4 -15 2 -23 -5 -13
-10 -15 -9 -9 11 3 13 3 21 0 18 -4 -3 -12 -1 -20 5 -10 9 -13 8 -13 -2 0 -11
-2 -11 -10 1 -8 12 -11 13 -19 1 -7 -11 -10 -11 -17 0 -8 14 -31 -8 588 566
218 202 395 372 395 376 -1 4 -369 345 -817 758 -448 413 -815 755 -815 760 0
6 403 371 895 813 l895 803 3 -589 c1 -323 1 -853 0 -1177z m-1788 -406 l165
-165 -1485 0 -1485 1 168 164 167 165 1153 0 1152 0 165 -165z m-2532 -1379
c425 -439 535 -558 493 -532 -6 4 -11 0 -11 -8 0 -9 -4 -16 -9 -16 -5 0 -7 10
-3 23 l5 22 -23 -20 c-13 -11 -20 -15 -17 -9 4 7 0 15 -9 18 -8 3 -12 10 -9
16 9 15 -4 12 -21 -5 -19 -18 -38 -20 -28 -2 6 9 4 9 -8 -1 -9 -7 -14 -22 -12
-35 4 -18 3 -19 -4 -4 -4 10 -11 18 -15 18 -25 -3 -31 0 -17 9 8 5 12 10 7 10
-12 0 -51 -24 -60 -37 -4 -7 -13 -13 -20 -13 -9 0 -8 3 1 9 10 6 10 11 -3 21
-13 11 -21 11 -35 2 -14 -9 -21 -8 -30 3 -12 14 -63 18 -54 4 2 -4 -7 -14 -21
-23 -21 -14 -24 -14 -19 -1 4 8 1 15 -5 15 -6 0 -8 7 -5 15 4 8 1 15 -7 15 -7
0 -9 -3 -6 -7 4 -3 2 -12 -4 -20 -9 -9 -8 -13 0 -13 6 0 11 -5 11 -12 0 -6 -7
-4 -18 5 -10 10 -24 17 -30 17 -7 0 -12 4 -12 10 0 5 8 7 18 4 14 -5 14 -4 2
4 -9 7 -18 7 -26 1 -8 -6 -34 15 -85 68 -40 43 -264 273 -497 512 l-423 434
133 134 133 134 130 -133 c72 -73 347 -357 613 -632z m3354 440 c-265 -282
-947 -971 -960 -971 -9 0 -20 -4 -23 -9 -4 -5 -10 1 -14 13 -8 25 -20 27 -29
5 -3 -8 -2 -12 4 -9 6 3 10 2 10 -3 0 -12 -36 -22 -45 -13 -4 3 -11 7 -16 7
-5 1 -13 2 -19 3 -5 0 -10 6 -10 12 0 5 5 7 10 4 6 -3 10 -1 10 6 0 7 9 2 20
-11 11 -13 20 -18 20 -13 0 15 -29 37 -50 38 -10 1 -19 -1 -18 -4 0 -3 0 -15
-1 -25 -1 -16 -4 -17 -13 -8 -19 19 -31 14 -25 -9 5 -19 4 -19 -11 -6 -17 16
-21 17 -47 17 -9 0 -12 6 -9 15 7 18 -21 21 -32 3 -5 -7 -2 -9 7 -4 8 4 3 -2
-11 -13 -16 -13 -20 -21 -11 -21 8 0 11 -3 8 -6 -4 -4 -13 -1 -22 6 -12 10
-18 10 -31 0 -8 -8 -14 -9 -13 -4 4 25 -2 54 -11 49 -6 -4 -7 -12 -3 -18 4 -8
1 -7 -9 1 -14 12 -16 10 -11 -10 4 -18 3 -20 -6 -8 -6 8 -11 11 -11 7 0 -5
-15 2 -32 14 -19 14 -28 16 -20 7 8 -9 9 -19 4 -22 -6 -3 -12 3 -15 14 -5 21
-7 19 812 863 l415 428 132 -132 133 -133 -57 -60z m-35 -978 c-3 -8 -6 -5 -6
6 -1 11 2 17 5 13 3 -3 4 -12 1 -19z m-4222 2 c3 -5 1 -10 -4 -10 -6 0 -11 5
-11 10 0 6 2 10 4 10 3 0 8 -4 11 -10z m1065 -2 c0 -4 -6 -8 -14 -8 -8 0 -17
-7 -20 -16 -4 -9 -9 -14 -12 -11 -10 9 14 44 30 44 9 0 16 -4 16 -9z m260 8
c0 -3 -4 -8 -10 -11 -5 -3 -10 -1 -10 4 0 6 5 11 10 11 6 0 10 -2 10 -4z
m2740 0 c0 -2 -8 -10 -17 -17 -16 -13 -17 -12 -4 4 13 16 21 21 21 13z m-2773
-26 c-1 -21 -10 -18 -13 5 -1 8 2 15 6 15 5 0 8 -9 7 -20z m2853 7 c0 -22 -11
-27 -34 -15 -20 11 -20 11 -1 19 29 11 35 10 35 -4z m-3989 -20 c-10 -9 -11
-8 -5 6 3 10 9 15 12 12 3 -3 0 -11 -7 -18z m1279 13 c0 -5 -2 -10 -4 -10 -3
0 -8 5 -11 10 -3 6 -1 10 4 10 6 0 11 -4 11 -10z"/>
<path d="M2907 4383 c3 -7 9 -10 14 -7 14 8 11 21 -5 21 -8 0 -12 -6 -9 -14z"/>
<path d="M7406 4402 c-3 -5 1 -9 9 -9 8 0 12 4 9 9 -3 4 -7 8 -9 8 -2 0 -6 -4
-9 -8z"/>
<path d="M7719 4384 c-7 -8 -7 -14 1 -19 5 -3 10 1 10 10 0 9 4 14 9 10 5 -3
12 -2 15 3 8 14 -23 10 -35 -4z"/>
<path d="M4476 4389 c2 -4 -2 -10 -8 -12 -8 -4 -9 -6 -2 -6 6 -1 17 5 23 12 8
10 7 14 -4 14 -8 0 -12 -4 -9 -8z"/>
<path d="M4280 4370 c0 -5 5 -10 10 -10 6 0 10 5 10 10 0 6 -4 10 -10 10 -5 0
-10 -4 -10 -10z"/>
<path d="M6563 4386 c0 -16 35 -18 43 -3 4 7 4 9 -1 5 -4 -4 -15 -3 -25 2 -11
6 -17 5 -17 -4z"/>
<path d="M6275 4380 c6 -10 4 -12 -8 -7 -9 3 -19 2 -22 -3 -4 -6 3 -10 14 -10
24 0 36 16 20 26 -8 5 -9 3 -4 -6z"/>
<path d="M6360 4386 c0 -2 7 -7 16 -10 8 -3 12 -2 9 4 -6 10 -25 14 -25 6z"/>
</g>
</svg>
